
<svg xmlns="http://www.w3.org/2000/svg" version="1.1" xmlns:xlink="http://www.w3.org/1999/xlink" preserveAspectRatio="none" x="0px" y="0px" width="650px" height="400px" viewBox="0 0 650 400">
<defs>
<g id="Layer2_0_FILL">
<path fill="#FF0000" stroke="none" d="
M 223.65 94.65
L 222.35 93
Q 215.9 99.45 210.65 106.2 216.9 99.95 223.65 94.65 Z"/>

<path fill="#99CC66" stroke="none" d="
M 340.65 192.65
L 325.65 169.9
Q 318.7 161.3 311.6 159 293.95 151.25 272.35 160.15 234.05 179.65 242 226.5 253.05 271.4 293.8 290.5 336.05 304.55 377.1 294.65 406.3 282.45 425.8 260.3 441.65 242.5 448.4 208.7 450.2 196.15 448.9 183.6 444.1 150.75 426.95 124.2 402.85 84.45 360.95 69.4 325.45 59.35 283.05 66.45 249.1 74.55 223.65 94.65 216.9 99.95 210.65 106.2 210.15 106.7 209.65 107.35 189.35 132.8 182.4 163.8 222.35 85.4 311.95 75.35
L 312.1 75.5
Q 404.85 72.9 435.55 170.05 446.6 228 406.5 259.5 406.15 259.85 405.85 260.15 357 294.15 305.65 271.05 281.4 255.05 288.35 228.95 289.35 224.2 290 222.85 290.65 221.2 293.65 216.75 296.6 212.3 310.15 210 323.8 207.7 332.55 222.05 340 240.2 352.7 243.8 387.85 247.45 403.2 222.2 403.35 221.7 403.7 221.2 414.55 206.7 411.1 179.15 399.55 111.5 329.75 108.7 285.05 105.9 249.25 132.1 199.25 168.25 203.55 220.4 208.15 277.8 254.5 316.4 295.6 345.15 356.65 346.6 400.9 338.55 434.55 305.05 443.45 296.15 450.55 286.4 418.7 314.45 381.55 326 336.7 340.35 289.15 322.85
L 288.7 322.85
Q 226.95 293.15 219.2 239.55 205.7 189.85 245.95 148.6 282.55 118.25 327.1 125 368.7 137.05 373.65 166.75 378.25 197.95 358.95 199.75 349.25 202.1 340.65 192.65 Z"/>
</g>

<g id="Layer1_0_FILL">
<path fill="#FF6666" stroke="none" d="
M 329.75 108.7
Q 399.55 111.5 411.1 179.15 414.55 206.7 403.7 221.2 403.35 221.7 403.2 222.2 387.85 247.45 352.7 243.8 340 240.2 332.55 222.05 323.8 207.7 310.15 210 296.6 212.3 293.65 216.75 290.65 221.2 290 222.85 289.35 224.2 288.35 228.95 281.4 255.05 305.65 271.05 357 294.15 405.85 260.15 406.15 259.85 406.5 259.5 446.6 228 435.55 170.05 404.85 72.9 312.1 75.5
L 311.95 75.35
Q 222.35 85.4 182.4 163.8 178.45 180.65 178.45 198.95 178.45 261.15 222.35 305.05 266.4 348.95 328.45 348.95 342.95 348.95 356.65 346.6 295.6 345.15 254.5 316.4 208.15 277.8 203.55 220.4 199.25 168.25 249.25 132.1 285.05 105.9 329.75 108.7 Z"/>
</g>

<g id="Layer0_0_FILL">
<path fill="#FF6666" stroke="none" d="
M 325.65 169.9
L 340.65 192.65
Q 349.25 202.1 358.95 199.75 378.25 197.95 373.65 166.75 368.7 137.05 327.1 125 282.55 118.25 245.95 148.6 205.7 189.85 219.2 239.55 226.95 293.15 288.7 322.85
L 289.15 322.85
Q 336.7 340.35 381.55 326 418.7 314.45 450.55 286.4 478.45 248.45 478.45 198.95 478.45 136.9 434.55 93 390.5 48.95 328.45 48.95 266.4 48.95 222.35 93
L 223.65 94.65
Q 249.1 74.55 283.05 66.45 325.45 59.35 360.95 69.4 402.85 84.45 426.95 124.2 444.1 150.75 448.9 183.6 450.2 196.15 448.4 208.7 441.65 242.5 425.8 260.3 406.3 282.45 377.1 294.65 336.05 304.55 293.8 290.5 253.05 271.4 242 226.5 234.05 179.65 272.35 160.15 293.95 151.25 311.6 159 318.7 161.3 325.65 169.9 Z"/>
</g>
</defs>

<g transform="matrix( 1, 0, 0, 1, 0,0) ">
<use xlink:href="#Layer2_0_FILL"/>
</g>

<g transform="matrix( 1, 0, 0, 1, 0,0) ">
<use xlink:href="#Layer1_0_FILL"/>
</g>

<g transform="matrix( 1, 0, 0, 1, 0,0) ">
<use xlink:href="#Layer0_0_FILL"/>
</g>
</svg>
