
<svg xmlns="http://www.w3.org/2000/svg" version="1.1" xmlns:xlink="http://www.w3.org/1999/xlink" preserveAspectRatio="none" x="0px" y="0px" width="650px" height="400px" viewBox="0 0 650 400">
<defs>
<g id="Symbol_11_0_Layer0_0_FILL">
<path fill="#9966CC" stroke="none" d="
M 65.6 -65.25
Q 41 -89.85 7 -91.95 -29 -80.35 -39.3 -70.55 -63.6 -46.75 -69.6 -22.95 -74.7 -0.75 -68.3 16.75 -60.2 34.75 -48 44.75 -37 53.65 -22.3 55.05 -10.8 56.75 2.3 54.15 15.6 50.25 23.5 39.95 23.6 39.65 23.8 39.45 31.2 29.75 31.5 18.45 29.5 10.05 24.5 6.05 16.6 0.25 8.7 4.25 3.4 6.35 4.1 11.75 8.5 21.75 2 30.55 -5.7 40.4447265625 -13.9 41.6 -22.1 42.7658203125 -30.8 40.6 -39.5 38.42890625 -46.8 26.55 -56.4 12.75 -55.4 -6.8 -55.4 -19.95 -50.6 -31.4 -43.5 -48.45 -26.3 -59.05 -10.7 -70.95 10.5 -69.55 29.2 -68.55 49 -60.85 70.3 -49.45 91.5 -15.05 87.1 -43.75 65.6 -65.25
M 43.5 -37.25
Q 59 -22.25 64.7 -3.45 69.7 13.85 63.7 36.55 55 56.95 40.2 67.75 26.6 80.75 6.5 85.05 -11.3 88.95 -29.1 87.45 -15.3 92.05 0.5 92.05 38.7 92.05 65.6 65.05 86.8 43.85 91.4 15.75 86.2 -10.75 70.5 -30.95 58.6 -51.15 28.2 -60.25 12.4 -63.95 -1.5 -61.25 -18.1 -57.95 -30 -46.85 -43.4 -31.65 -45.8 -21.75 -48.9 -5.35 -42.5 9.05 -35.5 20.85 -22.8 23.25 -15.7 23.05 -11 16.85 -7.8 12.75 -9.6 6.35 -9.7 5.85 -9.8 5.45 -10.7 3.55 -15.1 3.15 -27.6 -1.45 -28.8 -15.75 -29.7 -29.95 -18 -39.85 -8.8 -47.65 9.5 -49.75 26.5 -49.65 43.5 -37.25
M 30.6 -33.85
Q 16.8 -40.05 3 -33.95 -7 -27.45 -8.4 -14.65 -8.4 -14.55 -8.4 -14.25 -8.9 -8.15 -1.4 -5.15 1.6 -17.45 13.7 -17.35 27.5 -17.75 37.5 -5.75 44.1 3.55 44.2 17.95 44.2 18.35 44.2 18.85 41.9 38.25 24 51.25 10.2 64.05 -15.8 64.55 -42.9 62.45 -58 46.55 -69.6 32.75 -76.2 11.75 -80.9 -10.55 -75.3 -28.15 -66.5 -52.95 -45.3 -73.95 -32.5 -84.85 -14.3 -91.05 -43.1 -86.75 -64.7 -65.25 -91.6 -38.25 -91.6 -0.05 -91.6 34.824609375 -69.2 60.25 -43.6490234375 77.454296875 -22 79.25 1.5 81.45 19 73.05 35.9 62.65 45 51.25 55.6 37.95 58.3 22.75 60.1 7.05 53.5 -8.65 44 -26.05 30.6 -33.85 Z"/>

<path fill="#FF6666" stroke="none" d="
M 7 -91.95
Q 3.8 -92.15 0.5 -92.15 -7.1 -92.15 -14.3 -91.05 -32.5 -84.85 -45.3 -73.95 -66.5 -52.95 -75.3 -28.15 -80.9 -10.55 -76.2 11.75 -69.6 32.75 -58 46.55 -42.9 62.45 -15.8 64.55 10.2 64.05 24 51.25 41.9 38.25 44.2 18.85 44.2 18.35 44.2 17.95 44.1 3.55 37.5 -5.75 27.5 -17.75 13.7 -17.35 1.6 -17.45 -1.4 -5.15 -8.9 -8.15 -8.4 -14.25 -8.4 -14.55 -8.4 -14.65 -7 -27.45 3 -33.95 16.8 -40.05 30.6 -33.85 44 -26.05 53.5 -8.65 60.1 7.05 58.3 22.75 55.6 37.95 45 51.25 35.9 62.65 19 73.05 1.5 81.45 -22 79.25 -43.6490234375 77.454296875 -69.2 60.25 -67.0416015625 62.7083984375 -64.7 65.05 -48.8 80.95 -29.1 87.45 -11.3 88.95 6.5 85.05 26.6 80.75 40.2 67.75 55 56.95 63.7 36.55 69.7 13.85 64.7 -3.45 59 -22.25 43.5 -37.25 26.5 -49.65 9.5 -49.75 -8.8 -47.65 -18 -39.85 -29.7 -29.95 -28.8 -15.75 -27.6 -1.45 -15.1 3.15 -10.7 3.55 -9.8 5.45 -9.7 5.85 -9.6 6.35 -7.8 12.75 -11 16.85 -15.7 23.05 -22.8 23.25 -35.5 20.85 -42.5 9.05 -48.9 -5.35 -45.8 -21.75 -43.4 -31.65 -30 -46.85 -18.1 -57.95 -1.5 -61.25 12.4 -63.95 28.2 -60.25 58.6 -51.15 70.5 -30.95 86.2 -10.75 91.4 15.75 92.6 8.15 92.6 -0.05 92.6 -7.75 91.5 -15.05 70.3 -49.45 49 -60.85 29.2 -68.55 10.5 -69.55 -10.7 -70.95 -26.3 -59.05 -43.5 -48.45 -50.6 -31.4 -55.4 -19.95 -55.4 -6.8 -56.4 12.75 -46.8 26.55 -39.5 38.42890625 -30.8 40.6 -22.1 42.7658203125 -13.9 41.6 -5.7 40.4447265625 2 30.55 8.5 21.75 4.1 11.75 3.4 6.35 8.7 4.25 16.6 0.25 24.5 6.05 29.5 10.05 31.5 18.45 31.2 29.75 23.8 39.45 23.6 39.65 23.5 39.95 15.6 50.25 2.3 54.15 -10.8 56.75 -22.3 55.05 -37 53.65 -48 44.75 -60.2 34.75 -68.3 16.75 -74.7 -0.75 -69.6 -22.95 -63.6 -46.75 -39.3 -70.55 -29 -80.35 7 -91.95 Z"/>
</g>
</defs>

<g transform="matrix( 1.6415557861328125, 0, 0, 1.6415557861328125, 327.1,200) ">
<g transform="matrix( 1, 0, 0, 1, 0,0) ">
<use xlink:href="#Symbol_11_0_Layer0_0_FILL"/>
</g>
</g>
</svg>
