
<svg xmlns="http://www.w3.org/2000/svg" version="1.1" xmlns:xlink="http://www.w3.org/1999/xlink" preserveAspectRatio="none" x="0px" y="0px" width="650px" height="400px" viewBox="0 0 650 400">
<defs>
<g id="Symbol_12_0_Layer0_0_FILL">
<path fill="#9966CC" stroke="none" d="
M 65.6 84.75
Q 38.7 57.85 0.5 57.85 -37.7 57.85 -64.7 84.75 -91.6 111.75 -91.6 149.95 -91.6 188.15 -64.7 215.05 -37.7 242.05 0.5 242.05 38.7 242.05 65.6 215.05 92.6 188.15 92.6 149.95 92.6 111.75 65.6 84.75
M 0.5 67.05
Q 34.9 67.05 59.1 91.25 83.4 115.55 83.4 149.95 83.4 184.35 59.1 208.55 34.9 232.85 0.5 232.85 -33.8 232.85 -58.1 208.55 -82.4 184.35 -82.4 149.95 -82.4 115.55 -58.1 91.25 -33.8 67.05 0.5 67.05
M 53.3 97.05
Q 31.5 75.25 0.5 75.25 -30.4 75.25 -52.3 97.05 -74.1 118.95 -74.1 149.85 -74.1 180.85 -52.3 202.65 -30.4 224.45 0.5 224.45 31.5 224.45 53.3 202.65 75.1 180.85 75.1 149.85 75.1 118.95 53.3 97.05
M 44.65 119.8
L 44.3 119.45
Q 51.2 134.95 49.9 151.75 48.5 165.75 38.5 175.55 23.7 192.75 5.1 186.45 9.4 181.85 10 173.55 9.5 162.65 3.2 157.55 -10 149.85 -21.5 153.95 -33.1 157.85 -32.8 170.85 -33 189.45 -12.4 201.3 11.3 209.55 31.4 198.15 53.7 183.05 61 161.35 61.1 161.05 61.2 160.75 65.2 141.85 59.05 118.55 66.3 134.45 66.3 149.85 66.3 166.45 59.2 180.15 43.449609375 204.2810546875 14 209.05 -20.7 211.95 -37.6 189.35 -50 170.35 -48.3 148.85 -47 122.55 -24.3 113.05 -11.3 109.45 -2 114.05 -11.7 118.15 -10 131.05 -8.5 144.05 2.6 147.55 15.3 150.85 24.5 145.55 40.1 134.75 32.8 115.35 22.7 100.75 6 98.05 -22.4 95.45 -36 106.05 -57.1 120.75 -65.8 149.65 -65.5537109375 136.2021484375 -62 128.65 -57.5419921875 118.962890625 -54.25 115.1 -50.63359375 109.7408203125 -46.65 106.5 -34.9 95.85 -17.3 92.55 0.5 90.15 15.7 94.55 36.1 101.25 44.65 119.8 Z"/>

<path fill="#FFCC00" stroke="none" d="
M 59.1 91.25
Q 34.9 67.05 0.5 67.05 -33.8 67.05 -58.1 91.25 -82.4 115.55 -82.4 149.95 -82.4 184.35 -58.1 208.55 -33.8 232.85 0.5 232.85 34.9 232.85 59.1 208.55 83.4 184.35 83.4 149.95 83.4 115.55 59.1 91.25
M 0.5 75.25
Q 31.5 75.25 53.3 97.05 75.1 118.95 75.1 149.85 75.1 180.85 53.3 202.65 31.5 224.45 0.5 224.45 -30.4 224.45 -52.3 202.65 -74.1 180.85 -74.1 149.85 -74.1 118.95 -52.3 97.05 -30.4 75.25 0.5 75.25
M 44.3 119.45
L 44.65 119.8
Q 36.1 101.25 15.7 94.55 0.5 90.15 -17.3 92.55 -34.9 95.85 -46.65 106.5 -50.63359375 109.7408203125 -54.25 115.1 -57.5419921875 118.962890625 -62 128.65 -65.5537109375 136.2021484375 -65.8 149.65 -57.1 120.75 -36 106.05 -22.4 95.45 6 98.05 22.7 100.75 32.8 115.35 40.1 134.75 24.5 145.55 15.3 150.85 2.6 147.55 -8.5 144.05 -10 131.05 -11.7 118.15 -2 114.05 -11.3 109.45 -24.3 113.05 -47 122.55 -48.3 148.85 -50 170.35 -37.6 189.35 -20.7 211.95 14 209.05 43.449609375 204.2810546875 59.2 180.15 66.3 166.45 66.3 149.85 66.3 134.45 59.05 118.55 65.2 141.85 61.2 160.75 61.1 161.05 61 161.35 53.7 183.05 31.4 198.15 11.3 209.55 -12.4 201.3 -33 189.45 -32.8 170.85 -33.1 157.85 -21.5 153.95 -10 149.85 3.2 157.55 9.5 162.65 10 173.55 9.4 181.85 5.1 186.45 23.7 192.75 38.5 175.55 48.5 165.75 49.9 151.75 51.2 134.95 44.3 119.45 Z"/>
</g>
</defs>

<g transform="matrix( 1.6319580078125, 0, 0, 1.6319580078125, 327.15,-46.6) ">
<g transform="matrix( 1, 0, 0, 1, 0,0) ">
<use xlink:href="#Symbol_12_0_Layer0_0_FILL"/>
</g>
</g>
</svg>
